<?xml version="1.0" standalone="no"?><!DOCTYPE svg PUBLIC "-//W3C//DTD SVG 1.1//EN" "http://www.w3.org/Graphics/SVG/1.1/DTD/svg11.dtd"><svg t="1762415101318" class="icon" viewBox="0 0 1024 1024" version="1.1" xmlns="http://www.w3.org/2000/svg" p-id="7516" xmlns:xlink="http://www.w3.org/1999/xlink" width="200" height="200"><path d="M512 512m-512 0a512 512 0 1 0 1024 0 512 512 0 1 0-1024 0Z" fill="#FFFFFF" p-id="7517"></path><path d="M482.78497 284.330667m-98.148849 0a98.148848 98.148848 0 1 0 196.297697 0 98.148848 98.148848 0 1 0-196.297697 0Z" fill="#333333" p-id="7518"></path><path d="M315.562667 343.769212c34.179879 8.052364 73.169455 99.762424 167.222303 84.557576 94.052848-15.204848 155.67903-51.122424 165.608727-59.671273 9.929697-8.564364 81.795879-18.680242 81.795879 59.686788-4.266667 27.880727-19.750788 46.405818-149.255758 95.107879-8.579879 3.723636-19.316364 82.494061-4.096 95.061333 15.204848 12.567273 63.767273 32.473212 112.453818-19.083636 48.686545-51.525818 117.015273 62.355394 40.89794 104.634182-76.132848 42.278788-97.559273 49.850182-153.351758 38.834424-55.792485-11.031273-114.253576-78.506667-119.714909-101.438061-5.461333-22.946909-45.816242 55.528727-45.816242 83.378424 0 27.834182-15.592727 113.69503-67.490909 98.955637-51.898182-14.739394-71.059394-38.896485-49.648485-110.62303 21.395394-71.71103 81.454545-156.253091 81.454545-163.77794 0-7.524848 12.101818-28.70303-15.282424-40.277333-27.399758-11.574303-131.475394-52.518788-108.916364-126.650182 15.468606-44.730182 30.999273-45.257697 64.139637-38.694788z" fill="#333333" p-id="7519"></path></svg>