<?xml version="1.0" standalone="no"?><!DOCTYPE svg PUBLIC "-//W3C//DTD SVG 1.1//EN" "http://www.w3.org/Graphics/SVG/1.1/DTD/svg11.dtd"><svg t="1762415378546" class="icon" viewBox="0 0 1024 1024" version="1.1" xmlns="http://www.w3.org/2000/svg" p-id="12861" xmlns:xlink="http://www.w3.org/1999/xlink" width="200" height="200"><path d="M1003.756 958.174h-981.709c-16.398 0-24.347-14.894-17.758-32.795l47.617-130.752v-584.014c-0.071 0-0.071-0.071-0.144-0.071v-44.968c0.071 0 0.071 0.071 0.144 0.071v-40.243c0-32.866 26.637-59.504 59.504-59.504h803.126c32.795 0 59.433 26.637 59.433 59.504v669.583l47.545 130.465c6.588 17.829-1.36 32.724-17.758 32.724zM76.61 913.707h872.655c7.734 0 11.814-7.232 9.022-15.897l-9.166-28.856h-872.369l-9.166 28.856c-2.793 8.737 1.218 15.897 9.022 15.897zM222.971 794.627c-43.822-73.395-76.546-188.681-81.2-288.498-4.582 2.578-9.095 4.941-13.748 7.304-0.931 11.743-1.791 23.701-1.791 35.803 0 116.073 23.559 194.91 53.56 245.463h43.179zM111.411 549.235c0-9.596 0.644-19.119 1.36-28.571-5.442 2.363-10.885 4.511-16.255 6.516v267.446h67.451c-30.648-56.067-52.559-137.912-52.559-245.392zM96.516 476.626c3.652-1.719 7.304-3.367 10.885-5.156-3.58 1.647-7.232 2.935-10.885 4.225v0.931zM96.516 459.801c69.314-27.066 130.107-126.742 145.072-252.695-8.378-4.441-16.684-7.447-25.062-7.447-5.872 0-11.814 1.505-17.686 3.795-7.948 107.194-46.83 199.35-102.396 254.414v1.932zM125.445 461.733c81.774-47.832 156.6-140.060 174.645-219.901-14.823-5.012-29.716-16.541-44.539-26.351-15.181 113.925-67.238 206.726-130.107 246.25zM185.88 477.199c0 1.719-0.144 3.294-0.144 5.083 0 104.759 46.616 257.636 94.591 312.343h465.435c47.975-54.707 94.305-207.513 94.305-312.343 0-1.791-0.071-3.367-0.144-5.083-80.126-60.292-145.717-153.237-160.11-237.158-27.21-10.956-52.845-39.669-76.189-40.314-7.662 0.286-16.255 4.582-25.421 10.597-1.719 1.791-3.58 3.079-5.729 3.724-19.119 13.033-41.172 30.29-65.233 30.29-29.716 0-62.584-44.681-97.169-44.681-20.336 0-41.388 19.334-62.654 32.509-11.529 85.927-78.909 182.881-161.542 245.035zM846.082 794.627c30.003-50.554 53.56-129.391 53.56-245.463 0-12.101-0.931-24.060-1.791-35.803-4.511-2.363-9.166-4.726-13.677-7.304-4.582 99.889-37.306 215.103-81.2 288.498h43.107zM929.358 527.181c-5.37-2.005-10.741-4.153-16.183-6.516 0.644 9.452 1.36 18.975 1.36 28.57 0 107.551-21.983 189.397-52.559 245.463h67.38v-267.518zM900.43 461.733c-64.229-40.385-117.147-136.408-130.967-253.769-15.181 8.162-30.145 20.479-44.754 28.499 15.825 81.057 92.156 176.365 175.719 225.27zM929.358 459.801v-1.861c-54.347-53.775-92.729-143.21-101.822-247.469-10.383-6.157-20.623-10.741-30.933-10.741-4.368 0-8.663 0.788-13.033 2.077 13.892 128.46 75.543 230.497 145.789 257.994zM929.358 475.697c-3.652-1.29-7.304-2.578-10.885-4.225 3.652 1.791 7.304 3.508 10.885 5.156v-0.931zM930.148 809.305h-76.475c-0.071 0-0.144 0.144-0.144 0.144h-16.326l0.071-0.144h-648.674c0.071 0 0.071 0.144 0.144 0.144h-16.326l-0.071-0.144h-76.617l-14.178 44.754h862.845l-14.249-44.754zM96.516 436.599c45.97-51.628 78.407-132.041 86.929-225.199-21.912 13.247-43.25 32.939-64.015 32.939-7.734 0-15.395-2.363-22.913-5.8v198.061zM929.358 125.402c0-8.234-6.659-14.894-14.823-14.894h-803.126c-8.234 0-14.894 6.659-14.894 14.894v68.312c7.734 3.58 15.681 6.015 23.701 6.015 30.862 0 63.371-44.61 96.452-44.61 31.936 0 64.445 44.61 96.668 44.61 32.939 0 65.519-44.61 96.668-44.61 34.801 0 67.882 44.61 97.671 44.61 18.115 0 78.193-44.61 95.594-44.61 0.216 0 0.357 0.071 0.573 0.071 0.144 0 0.286-0.071 0.43-0.071 30.075 0 82.847 44.61 96.095 44.61 30.862 0 63.371-44.61 96.452-44.61 12.387 0 24.848 6.731 37.306 14.894l6.445 4.296c0 1.431 0-1.431 0 0 17.686 12.101 35.302 25.421 52.916 25.421 12.101 0 24.131-6.015 36.017-13.677v-60.649zM893.987 244.339c-16.755 0-33.654-11.959-50.483-23.559 9.737 89.149 41.531 165.91 85.855 215.818v-205.652c-11.672 7.447-23.486 13.39-35.374 13.39zM-111.711 170.012v0 0z" p-id="12862" fill="#2c2c2c"></path></svg>